<svg xmlns="http://www.w3.org/2000/svg" version="1.1" xmlns:xlink="http://www.w3.org/1999/xlink" xmlns:svgjs="http://svgjs.dev/svgjs" width="1000" height="1000" viewBox="0 0 1000 1000"><rect width="1000" height="1000" fill="#000000"></rect><g transform="matrix(0.7,0,0,0.7,149.57575757575756,418.5351105585953)"><svg viewBox="0 0 396 93" data-background-color="#ffffff" preserveAspectRatio="xMidYMid meet" height="234" width="1000" xmlns="http://www.w3.org/2000/svg" xmlns:xlink="http://www.w3.org/1999/xlink"><g id="tight-bounds" transform="matrix(1,0,0,1,0.2400000000000091,-0.24704079334165385)"><svg viewBox="0 0 395.52 93.49407274866932" height="93.49407274866932" width="395.52"><g><svg viewBox="0 0 586.5989161047752 138.66181668838598" height="93.49407274866932" width="395.52"><g><rect width="5.771867901258726" height="120.40099857168101" x="170.19744636776068" y="9.130409058352484" fill="#ffffff" opacity="1" stroke-width="0" stroke="transparent" fill-opacity="1" class="rect-o-0" data-fill-palette-color="primary" rx="1%" id="o-0" data-palette-color="#e20917"></rect></g><g transform="matrix(1,0,0,1,191.07891610477523,19.163825605992564)"><svg viewBox="0 0 395.52 100.33416547640086" height="100.33416547640086" width="395.52"><g><svg viewBox="0 0 395.52 100.33416547640086" height="100.33416547640086" width="395.52"><g><svg viewBox="0 0 395.52 64.00312541620421" height="64.00312541620421" width="395.52"><g transform="matrix(1,0,0,1,0,0)"><svg width="395.52" viewBox="2.9000000953674316 -35.75 225.24000549316406 36.45000076293945" height="64.00312541620421" data-palette-color="#e20917"><path d="M29.9 0.7L29.9 0.7Q27.95 0.7 26.6 0.08 25.25-0.55 24.25-1.98 23.25-3.4 22.3-5.75L22.3-5.75 20.05-11.55Q19.45-13.05 18.9-14.03 18.35-15 17.53-15.48 16.7-15.95 15.2-15.95L15.2-15.95Q14.6-15.95 14.1-15.93 13.6-15.9 13.15-15.8L13.15-15.8 13.15-5.65Q13.15-4.4 13.5-3.83 13.85-3.25 15-3.1L15-3.1 18.1-2.75 18.1 0 2.9 0 2.9-2.75 5.55-3.15Q6.5-3.3 6.8-3.8 7.1-4.3 7.1-5.7L7.1-5.7 7.1-29.55Q7.1-30.8 6.78-31.28 6.45-31.75 5.45-31.9L5.45-31.9 2.9-32.3 2.9-35.05 16.3-35.05Q19.5-35.05 22.05-34.5 24.6-33.95 26.33-32.85 28.05-31.75 28.98-30.08 29.9-28.4 29.9-26.15L29.9-26.15Q29.9-24.65 29.4-23.38 28.9-22.1 28-21.05 27.1-20 25.93-19.18 24.75-18.35 23.43-17.8 22.1-17.25 20.75-17L20.75-17 20.75-16.85Q23-16.35 24.3-15.33 25.6-14.3 26.4-12.15L26.4-12.15 28.05-8.3Q28.75-6.65 29.3-5.48 29.85-4.3 30.63-3.7 31.4-3.1 32.65-3.1L32.65-3.1Q33.15-3.1 33.65-3.2 34.15-3.3 34.9-3.5L34.9-3.5 35.45-1.35Q34.4-0.4 33 0.15 31.6 0.7 29.9 0.7ZM15.7-18.7L15.7-18.7Q18.2-18.7 19.9-19.5 21.6-20.3 22.53-21.9 23.45-23.5 23.45-25.65L23.45-25.65Q23.45-27.9 22.58-29.25 21.7-30.6 20.03-31.28 18.35-31.95 15.75-31.95L15.75-31.95 13.15-31.95 13.15-18.8Q14-18.75 14.63-18.73 15.25-18.7 15.7-18.7ZM56.55 0.7L56.55 0.7Q53 0.7 50.4-0.2 47.8-1.1 46.17-2.85 44.55-4.6 43.75-7.18 42.95-9.75 42.95-13.1L42.95-13.1 42.95-29.5Q42.95-30.8 42.65-31.28 42.35-31.75 41.3-31.9L41.3-31.9 38.75-32.3 38.75-35.05 53.2-35.05 53.2-32.3 50.5-31.9Q49.6-31.75 49.3-31.23 49-30.7 49-29.35L49-29.35 49-13.35Q49-9.9 49.87-7.68 50.75-5.45 52.6-4.4 54.45-3.35 57.5-3.35L57.5-3.35Q60.6-3.35 62.55-4.48 64.5-5.6 65.42-7.9 66.35-10.2 66.35-13.65L66.35-13.65 66.35-29.5Q66.35-30.8 66.02-31.28 65.7-31.75 64.7-31.9L64.7-31.9 62.2-32.3 62.2-35.05 74.45-35.05 74.45-32.3 71.85-31.9Q70.9-31.75 70.6-31.23 70.3-30.7 70.3-29.3L70.3-29.3 70.3-14.2Q70.3-9.25 68.75-5.93 67.2-2.6 64.15-0.95 61.1 0.7 56.55 0.7ZM92.5 0.7L92.5 0.7Q89.85 0.7 87.42-0.2 85-1.1 83.4-2.55L83.4-2.55 82.65 0.3 80.1 0.3 79.15-10.55 82.25-10.9Q82.95-8.95 83.92-7.45 84.9-5.95 86.15-4.95 87.4-3.95 88.87-3.43 90.35-2.9 92.05-2.9L92.05-2.9Q94.05-2.9 95.42-3.53 96.8-4.15 97.5-5.35 98.2-6.55 98.2-8.2L98.2-8.2Q98.2-9.95 97.45-11.18 96.7-12.4 95-13.35 93.3-14.3 90.5-15.2L90.5-15.2Q87.85-16 85.92-16.98 84-17.95 82.72-19.18 81.45-20.4 80.85-22.03 80.25-23.65 80.25-25.75L80.25-25.75Q80.25-27.4 80.72-28.88 81.2-30.35 82.1-31.6 83-32.85 84.35-33.77 85.7-34.7 87.47-35.23 89.25-35.75 91.35-35.75L91.35-35.75Q93.55-35.75 95.5-35.05 97.45-34.35 98.9-33.15L98.9-33.15 99.55-35.75 102.1-35.75 103.2-25.4 100.1-24.9Q99.3-27.6 98.05-29.25 96.8-30.9 95.2-31.7 93.6-32.5 91.6-32.5L91.6-32.5Q89.1-32.5 87.52-31.13 85.95-29.75 85.95-27.4L85.95-27.4Q85.95-25.8 86.7-24.68 87.45-23.55 89.12-22.65 90.8-21.75 93.5-20.85L93.5-20.85Q96.2-19.95 98.22-18.95 100.25-17.95 101.52-16.7 102.8-15.45 103.42-13.88 104.05-12.3 104.05-10.15L104.05-10.15Q104.05-7.7 103.15-5.7 102.25-3.7 100.67-2.25 99.1-0.8 97-0.05 94.9 0.7 92.5 0.7ZM126.24 0L119.24 0 111.84-29.3Q111.54-30.5 111.17-31.05 110.79-31.6 109.59-31.8L109.59-31.8 107.59-32.2 107.59-35.05 121.84-35.05 121.84-32.3 119.34-31.95Q118.34-31.8 118.12-31.28 117.89-30.75 118.19-29.4L118.19-29.4 123.64-5.4 123.84-5.4 131.54-35.05 137.79-35.05 146.29-5.5 146.54-5.5 151.99-29.2Q152.24-30.5 152.02-31.08 151.79-31.65 150.79-31.85L150.79-31.85 148.34-32.35 148.34-35.05 160.59-35.05 160.59-32.3 158.19-31.9Q157.54-31.8 157.09-31.55 156.64-31.3 156.37-30.78 156.09-30.25 155.84-29.25L155.84-29.25 148.59 0 141.84 0 133.74-28.55 133.59-28.55 126.24 0ZM174.39 0L162.04 0 162.04-2.75 164.34-3.15Q165.24-3.35 165.69-3.85 166.14-4.35 166.64-5.85L166.64-5.85 177.09-35.05 183.24-35.05 193.64-5.75Q194.14-4.45 194.49-3.95 194.84-3.45 195.89-3.25L195.89-3.25 197.84-2.8 197.84 0 183.59 0 183.59-2.75 186.29-3.1Q187.29-3.25 187.49-3.83 187.69-4.4 187.29-5.6L187.29-5.6 185.34-11.25 172.44-11.25 170.59-5.8Q170.24-4.8 170.34-4.08 170.44-3.35 171.74-3.1L171.74-3.1 174.39-2.7 174.39 0ZM178.94-30.15L173.54-14.45 184.34-14.45 179.14-30.15 178.94-30.15ZM216.94 0L201.34 0 201.34-2.75 203.99-3.15Q204.94-3.3 205.24-3.8 205.54-4.3 205.54-5.7L205.54-5.7 205.54-29.55Q205.54-30.8 205.21-31.28 204.89-31.75 203.89-31.9L203.89-31.9 201.34-32.3 201.34-35.05 214.54-35.05Q217.14-35.05 219.29-34.68 221.44-34.3 223.11-33.52 224.79-32.75 225.89-31.58 226.99-30.4 227.56-28.78 228.14-27.15 228.14-25L228.14-25Q228.14-22.8 227.49-21.03 226.84-19.25 225.69-17.85 224.54-16.45 222.94-15.53 221.34-14.6 219.46-14.13 217.59-13.65 215.59-13.65L215.59-13.65Q214.24-13.65 213.11-13.73 211.99-13.8 211.59-13.9L211.59-13.9 211.59-5.65Q211.59-4.35 211.94-3.8 212.29-3.25 213.44-3.15L213.44-3.15 216.94-2.75 216.94 0ZM214.29-16.85L214.29-16.85Q217.99-16.85 219.89-18.88 221.79-20.9 221.79-24.85L221.79-24.85Q221.79-27.3 220.94-28.88 220.09-30.45 218.39-31.2 216.69-31.95 213.99-31.95L213.99-31.95 211.59-31.95 211.59-17.1Q211.99-17 212.71-16.93 213.44-16.85 214.29-16.85Z" opacity="1" transform="matrix(1,0,0,1,0,0)" fill="#ffffff" class="undefined-text-0" data-fill-palette-color="primary" id="text-0"></path></svg></g></svg></g><g transform="matrix(1,0,0,1,0,79.11272725196004)"><svg viewBox="0 0 232.209792 21.221438224440817" height="21.221438224440817" width="232.209792"><g transform="matrix(1,0,0,1,0,0)"><svg width="232.209792" viewBox="1.5 -39 520.7999877929688 47.599998474121094" height="21.221438224440817" data-palette-color="#e20917"><path d="M17.65-9.1L17.9-19.95 12.05-22.15 6.7-20.4 5.4-10.6 9.85-3.25 12.7-3.9 17.65-9.1ZM27.5-0.9L19.5-0.25 17.45-4.8 14.15-0.35 6.55-0.8 1.5-10.9 4.5-22.6 11.75-25.5 18.45-22.75 18.7-35.25 21.85-39 24.65-36.7 22.55-34.95 21.7-3.1 26.5-4 27.5-0.9ZM34.25-13.2L34.3-13.4 46-15.25 44.6-21.8 41.25-23.05 34.7-20.85 34.25-13.2ZM37.4-25.7L44.45-25.15 48.45-21.65 49.9-13.05 34.25-10.55 36.95-2.6 42.85-2.75 49.85-4.85 50.25-0.9 36.15 1.1 30-8 30.7-20.85 37.4-25.7ZM72.05-4.1L73.25-0.2 65.5 0.2 55.75-3 55.35-15.35 59.6-23.9 66.65-26.3 72.05-23.2 69.34-16.15 67.8-16.95 69.34-21.6 67.4-23.2 67.4-23.2 61.55-20.45 58.85-14.25 59.6-5.3 65.5-3 72.05-4.1ZM80.99-13.2L81.04-13.4 92.74-15.25 91.34-21.8 87.99-23.05 81.44-20.85 80.99-13.2ZM84.14-25.7L91.19-25.15 95.19-21.65 96.64-13.05 80.99-10.55 83.69-2.6 89.59-2.75 96.59-4.85 96.99-0.9 82.89 1.1 76.74-8 77.44-20.85 84.14-25.7ZM129.39-6.6L132.04-3.55 123.69 0.65 120.69-0.9 120.69-16.1 119.14-20.65 115.34-21.05 109.59-12.7 109.59-2.45 112.29-1.65 111.89 0.25 102.79-0.15 102.39-1.25 105.04-2.45 105.04-20.65 101.69-22.55 104.29-26 108.89-21.05 109.59-16.45 114.59-24.45 121.04-24.1 124.84-17.25 124.04-3.9 124.84-3.2 129.39-6.6ZM149.09-4.3L149.09-1.55 140.89 0 136.99-3.85 136.99-9 136.99-21.9 134.59-21.5 132.64-21.05 132.29-23.45 135.84-24.6 136.54-24.6 136.54-29.3 135.84-30.9 140.09-30.9 140.49-26.55 140.49-24.95 147.49-25.8 147.49-21.9 140.49-22.25 140.49-5.8 142.84-3.15 149.09-4.3ZM166.34-24.8L169.89-20.6 166.84-18 164.19-21.85 160.14-20.5 158.94-17.85 159.14-2.85 162.09-1.9 161.79-0.15 152.94-0.15 152.79-1.5 155.14-2.45 155.09-22.45 152.64-23.85 154.79-26.6 158.44-24.25 158.74-22.55 161.29-23.55 166.34-24.8ZM185.98-13.1L181.73-12.95 176.13-9.2 175.98-3.6 177.98-2.55Q178.98-2.6 179.83-2.65L179.83-2.65Q180.53-2.7 181.11-2.78 181.68-2.85 181.68-2.95L181.68-2.95Q181.68-2.95 181.88-3.25 182.08-3.55 182.41-4.03 182.73-4.5 183.13-5.08 183.53-5.65 183.98-6.25L183.98-6.25Q184.98-7.65 186.33-9.45L186.33-9.45 185.98-13.1ZM173.28-22.8L178.53-26.45 189.83-23.8 190.03-3.25 194.28-2.95 194.33-0.65 188.13-0.05 186.03-4.45 183.43-0.35 174.98 1.25 171.88-2.5 172.08-10.1 180.63-15.65 185.93-16.35 186.33-21.8 177.98-22.9 175.53-18.65 172.78-21.55 173.28-22.8ZM208.28-1.95L208.53-0.05 197.98-0.25 197.83-1.55 201.43-2.6 201.43-32.6 198.78-32.05 198.98-35.35 205.33-35.5 204.88-2.65 208.28-1.95ZM222.73-0.75L222.93 0.65 212.93 0.75 212.68-0.7 215.33-1.75 215.53-22.9 211.88-24.15 211.53-25.4 221.93-26 222.43-25 219.38-23.3 219.18-1.8 222.73-0.75ZM219.88-30.8L216.08-29.2 214.38-32.6 216.43-34.55 219.63-34.15 219.88-30.8ZM227.68-25.7L230.03-25.15 245.08-25.7 245.23-21.8 230.68-3.05 241.33-4.1 241.88-7.1 245.98-7.4 246.03-0.15 225.93-0.5 226.33-3.7 240.48-22 230.38-22.6 229.43-20.5 227.58-20.85 227.68-25.7ZM254.77-13.2L254.82-13.4 266.52-15.25 265.12-21.8 261.77-23.05 255.22-20.85 254.77-13.2ZM257.92-25.7L264.97-25.15 268.97-21.65 270.42-13.05 254.77-10.55 257.47-2.6 263.37-2.75 270.37-4.85 270.77-0.9 256.67 1.1 250.52-8 251.22-20.85 257.92-25.7ZM290.92-9.1L291.17-19.95 285.32-22.15 279.97-20.4 278.67-10.6 283.12-3.25 285.97-3.9 290.92-9.1ZM300.77-0.9L292.77-0.25 290.72-4.8 287.42-0.35 279.82-0.8 274.77-10.9 277.77-22.6 285.02-25.5 291.72-22.75 291.97-35.25 295.12-39 297.92-36.7 295.82-34.95 294.97-3.1 299.77-4 300.77-0.9ZM323.52-13.2L323.57-13.4 335.27-15.25 333.87-21.8 330.52-23.05 323.97-20.85 323.52-13.2ZM326.67-25.7L333.72-25.15 337.72-21.65 339.17-13.05 323.52-10.55 326.22-2.6 332.12-2.75 339.12-4.85 339.52-0.9 325.42 1.1 319.27-8 319.97-20.85 326.67-25.7ZM365.21-1.25L365.41 0.4 356.96 0.4 356.81-0.9 358.41-1.5 354.46-8.85 353.06-11.7 348.21-1.85 350.91-0.9 350.71 0.5 342.11 0.4 342.01-1 343.66-1.45 351.31-14.1 344.71-23.1 342.26-23.9 342.31-25.3 351.01-25.3 351.16-24.05 349.01-23.2 353.71-15.55 358.11-23.45 356.51-24.35 356.81-25.5 365.21-24.65 364.81-23.05 361.66-22.25 355.71-12.5 362.81-2.1 365.21-1.25ZM384.71-4.1L385.91-0.2 378.16 0.2 368.41-3 368.01-15.35 372.26-23.9 379.31-26.3 384.71-23.2 382.01-16.15 380.46-16.95 382.01-21.6 380.06-23.2 380.06-23.2 374.21-20.45 371.51-14.25 372.26-5.3 378.16-3 384.71-4.1ZM414.56-7L417.26-4.65 411.41 1.35 407.21-0.5 406.66-17.95 403.21-21.8 396.11-15.25 396.11-2.3 399.76-1.2 400.06 0.25 390.31 0.3 390.01-1.2 391.91-1.95 392.66-31.55 389.41-34.4 393.16-36.95 396.41-31.8 395.86-18.6 401.11-25.7 407.71-23.75 410.76-18.1 410.06-2.2 411.11-1.5 414.56-7ZM432.86-13.1L428.61-12.95 423.01-9.2 422.86-3.6 424.86-2.55Q425.86-2.6 426.71-2.65L426.71-2.65Q427.41-2.7 427.98-2.78 428.56-2.85 428.56-2.95L428.56-2.95Q428.56-2.95 428.76-3.25 428.96-3.55 429.28-4.03 429.61-4.5 430.01-5.08 430.41-5.65 430.86-6.25L430.86-6.25Q431.86-7.65 433.21-9.45L433.21-9.45 432.86-13.1ZM420.16-22.8L425.41-26.45 436.71-23.8 436.91-3.25 441.16-2.95 441.21-0.65 435.01-0.05 432.91-4.45 430.31-0.35 421.86 1.25 418.76-2.5 418.96-10.1 427.51-15.65 432.81-16.35 433.21-21.8 424.86-22.9 422.41-18.65 419.66-21.55 420.16-22.8ZM472.1-6.6L474.75-3.55 466.4 0.65 463.4-0.9 463.4-16.1 461.85-20.65 458.05-21.05 452.3-12.7 452.3-2.45 455-1.65 454.6 0.25 445.5-0.15 445.1-1.25 447.75-2.45 447.75-20.65 444.4-22.55 447-26 451.6-21.05 452.3-16.45 457.3-24.45 463.75-24.1 467.55-17.25 466.75-3.9 467.55-3.2 472.1-6.6ZM481.65-20.55L480-16.9 483.75-11.75 490.95-10.55 494.05-16.45 492.2-21.05 485.1-22.15 481.65-20.55ZM483.15-7.95L481.3-9.35 480.3-3.75 490.7-3.2 494.15-2.85 496.45 4.15 478.75 8.6 476.1 2.35 479.6 3.15 479.85 5.9 492.5 1.6 491.75 0.05 477.75-1.6 476.4-5.1 478.5-11.65 476.65-13.9 476.8-19.5 481.8-24.65 490.05-24.8 491-24.05 497.5-28.3 498.05-25.95 493.4-22.35 494.55-21.5 497.9-17.35 494.15-7.8 483.15-7.95ZM506.3-13.2L506.35-13.4 518.05-15.25 516.65-21.8 513.3-23.05 506.75-20.85 506.3-13.2ZM509.45-25.7L516.5-25.15 520.5-21.65 521.95-13.05 506.3-10.55 509-2.6 514.9-2.75 521.9-4.85 522.3-0.9 508.2 1.1 502.05-8 502.75-20.85 509.45-25.7Z" opacity="1" transform="matrix(1,0,0,1,0,0)" fill="#ffffff" class="undefined-text-1" data-fill-palette-color="secondary" id="text-1"></path></svg></g></svg></g></svg></g></svg></g><g><svg viewBox="0 0 155.08784453200485 138.66181668838598" height="138.66181668838598" width="155.08784453200485"><g><svg xmlns="http://www.w3.org/2000/svg" xmlns:xlink="http://www.w3.org/1999/xlink" version="1.1" x="0" y="0" viewBox="5 8.029999732971191 89.81800842285156 80.30499267578125" enable-background="new 0 0 100 100" xml:space="preserve" height="138.66181668838598" width="155.08784453200485" class="icon-icon-0" data-fill-palette-color="accent" id="icon-0"><circle cx="24.511" cy="22.382" r="14" fill="#ffffff" data-fill-palette-color="accent"></circle><circle cx="73.533" cy="22.382" r="14" fill="#ffffff" data-fill-palette-color="accent"></circle><path d="M74.42 40.24c-11.267 0-20.398 6.426-20.398 14.352v4.278h4.812v-5.232l18.444 10.649L58.833 74.937v-5.232h-4.812v18.63h40.797V54.592C94.818 46.666 85.686 40.24 74.42 40.24z" fill="#ffffff" data-fill-palette-color="accent"></path><path d="M40.767 80.354v5.232L22.322 74.938l18.444-10.65v5.232h5.03V54.592c0-7.926-9.132-14.352-20.398-14.352S5 46.666 5 54.592v33.742h40.797v-7.98H40.767z" fill="#ffffff" data-fill-palette-color="accent"></path></svg></g></svg></g></svg></g><defs></defs></svg><rect width="395.52" height="93.49407274866932" fill="none" stroke="none" visibility="hidden"></rect></g></svg></g></svg>