<svg xmlns="http://www.w3.org/2000/svg" version="1.1" xmlns:xlink="http://www.w3.org/1999/xlink" xmlns:svgjs="http://svgjs.dev/svgjs" width="1000" height="257" viewBox="0 0 1000 257"><g transform="matrix(1,0,0,1,-0.6060588517412953,0.15006053187491375)"><svg viewBox="0 0 396 102" data-background-color="#ffffff" preserveAspectRatio="xMidYMid meet" height="257" width="1000" xmlns="http://www.w3.org/2000/svg" xmlns:xlink="http://www.w3.org/1999/xlink"><g id="tight-bounds" transform="matrix(1,0,0,1,0.23999931196681246,-0.059557098253861795)"><svg viewBox="0 0 395.52 102.11910579633897" height="102.11910579633897" width="395.52"><g><svg viewBox="0 0 536.9231667044618 138.6279168315086" height="102.11910579633897" width="395.52"><g><rect width="4.906837812608697" height="100.81118409237779" x="408.3651251638971" y="18.908366369565407" fill="#ee3e38" opacity="1" stroke-width="0" stroke="transparent" fill-opacity="1" class="rect-o-0" data-fill-palette-color="primary" rx="1%" id="o-0" data-palette-color="#ee3e38"></rect></g><g transform="matrix(1,0,0,1,0,19.159140459347434)"><svg viewBox="0 0 395.52 100.30963591281373" height="100.30963591281373" width="395.52"><g><svg viewBox="0 0 395.52 100.30963591281373" height="100.30963591281373" width="395.52"><g><svg viewBox="0 0 395.52 54.410974279033496" height="54.410974279033496" width="395.52"><g transform="matrix(1,0,0,1,0,0)"><svg width="395.52" viewBox="0.4000000059604645 -34.900001525878906 260.08001708984375 35.30000305175781" height="54.410974279033496" data-palette-color="#ee3e38"><g class="undefined-text-0" data-fill-palette-color="primary" id="text-0"><path d="M0.4-34.45L28.4-34.45 28.4-27.3 25.25-26.9Q24.6-27.4 24-29L24-29 18-29 18-5.8Q20-5 20.75-4.15L20.75-4.15 20.25 0 8.55 0 8.05-4.15Q8.7-5 10.8-5.8L10.8-5.8 10.8-29 4.8-29Q4.2-27.4 3.55-26.9L3.55-26.9 0.4-27.3 0.4-34.45ZM56.95-12.5Q56.95-5.95 53.97-2.78 51 0.4 44.35 0.4 37.7 0.4 35.02-2.73 32.35-5.85 32.35-12.5L32.35-12.5 32.35-28.65Q30.45-29.35 29.6-30.35L29.6-30.35 30.1-34.5 41.8-34.5 42.3-30.35Q41.5-29.4 39.55-28.65L39.55-28.65 39.55-12.3Q39.55-8.7 40.72-6.98 41.9-5.25 44.95-5.25 48-5.25 49.25-7.03 50.5-8.8 50.5-12.3L50.5-12.3 50.5-28.65Q48.45-29.4 47.75-30.35L47.75-30.35 48.25-34.5 59.2-34.5 59.7-30.35Q58.9-29.4 56.95-28.65L56.95-28.65 56.95-12.5ZM89.15-24.4L89.15-24.4Q89.15-21 87.02-18.7 84.9-16.4 81.7-15.2L81.7-15.2Q84.2-14.15 85-12.65L85-12.65 88.65-5.7Q91-4.9 91.84-3.85L91.84-3.85 91.34 0 82.9 0 77.15-12.25Q76.34-14.1 75.3-14.1L75.3-14.1 72.05-14.1 72.05-6.1Q75.7-5.3 76.59-4.15L76.59-4.15 76.09 0 62.6 0 62.1-4.15Q62.75-5 64.84-5.8L64.84-5.8 64.84-28.65Q62.8-29.4 62.1-30.35L62.1-30.35 62.6-34.5 75.34-34.5Q82.34-34.4 85.75-32.25 89.15-30.1 89.15-24.4ZM75-29.05L75-29.05 72.05-29.05 72.05-19.55 74.9-19.55Q78.3-19.55 79.97-20.58 81.65-21.6 81.65-24.25 81.65-26.9 79.95-27.98 78.25-29.05 75-29.05ZM123.64-4.15L123.14 0 114.84 0 103.74-18 112.09-29.1Q110.69-29.75 110.14-30.45L110.14-30.45 110.64-34.5 122.04-34.5 122.54-30.45Q121.84-29.65 119.94-28.85L119.94-28.85 111.29-18.2 119.19-6.3Q122.44-5.6 123.64-4.15L123.64-4.15ZM93.99-34.5L105.69-34.5 106.19-30.35Q105.39-29.4 103.44-28.65L103.44-28.65 103.44-5.8Q105.44-5 106.19-4.15L106.19-4.15 105.69 0 93.99 0 93.49-4.15Q94.14-5 96.24-5.8L96.24-5.8 96.24-28.65Q94.19-29.4 93.49-30.35L93.49-30.35 93.99-34.5ZM140.24-29.05L140.24-29.05Q138.54-29.5 136.69-29.5 134.84-29.5 133.72-28.58 132.59-27.65 132.59-25.98 132.59-24.3 133.44-23.35 134.29-22.4 136.79-21.7L136.79-21.7 141.24-20.4Q144.84-19.35 146.97-17.13 149.09-14.9 149.09-10.6L149.09-10.6Q149.09-5.5 145.42-2.55 141.74 0.4 136.29 0.4L136.29 0.4Q133.29 0.4 130.12-0.38 126.94-1.15 124.84-2.55L124.84-2.55Q124.84-2.85 124.84-3.7 124.84-4.55 125.19-6.6 125.54-8.65 126.19-9.95L126.19-9.95 130.94-9.95Q131.74-8.4 131.89-5.8L131.89-5.8Q133.64-5.05 135.97-5.05 138.29-5.05 139.79-6.15 141.29-7.25 141.29-9.3L141.29-9.3Q141.29-10.25 141.14-10.88 140.99-11.5 140.22-12.23 139.44-12.95 137.99-13.4L137.99-13.4 132.84-14.9Q124.99-17.15 124.99-24.9L124.99-24.9Q124.99-29.45 128.29-32.18 131.59-34.9 136.92-34.9 142.24-34.9 147.34-32.5L147.34-32.5Q147.34-32.2 147.34-31.35 147.34-30.5 146.99-28.45 146.64-26.4 145.99-25.1L145.99-25.1 141.24-25.1Q140.39-26.3 140.24-29.05ZM172.94-18.7L172.94-18.7 168.74 0.25 161.04 0.25 153.04-28.65Q150.99-29.4 150.29-30.35L150.29-30.35 150.79-34.5 162.34-34.5 162.84-30.35Q161.99-29.35 160.14-28.7L160.14-28.7 163.69-13.95Q164.49-10.75 164.94-7.6L164.94-7.6 165.04-6.75 165.74-6.75Q165.79-9.7 166.69-13.85L166.69-13.85 171.19-34.15 178.84-34.15 183.34-13.95Q184.14-10.3 184.44-7.6L184.44-7.6 184.54-6.7 185.24-6.7Q185.34-9.75 186.44-13.85L186.44-13.85 190.39-28.5Q188.29-29.25 187.49-30.35L187.49-30.35 187.99-34.5 199.04-34.5 199.54-30.35Q198.59-29.15 196.19-28.4L196.19-28.4 187.79 0.25 179.94 0.25 175.89-18.65Q175.19-22.05 174.84-25.3L174.84-25.3 174.74-26.3 174.04-26.3Q173.84-22.85 172.94-18.7ZM211.74-34.75L218.59-34.75 228.54-5.9Q230.64-5.15 231.49-4.15L231.49-4.15 230.99 0 219.29 0 218.79-4.15Q219.39-4.95 221.19-5.65L221.19-5.65 219.84-9.85 209.84-9.85 208.59-5.8Q210.34-5.1 211.19-4.15L211.19-4.15 210.69 0 199.29 0 198.79-4.15Q199.69-5.3 202.14-6.05L202.14-6.05 211.74-34.75ZM215.14-27.75L214.44-27.75Q214.44-24.7 213.19-20.65L213.19-20.65 211.24-14.45 218.39-14.45 216.49-20.55Q215.34-24.05 215.19-26.9L215.19-26.9 215.14-27.75ZM245.13-12L245.13-12 242.88-12 242.88-6.1Q246.53-5.3 247.43-4.15L247.43-4.15 246.93 0 233.43 0 232.93-4.15Q233.58-5 235.68-5.8L235.68-5.8 235.68-28.65Q233.63-29.4 232.93-30.35L232.93-30.35 233.43-34.5 246.68-34.5Q253.63-34.4 257.06-31.98 260.48-29.55 260.48-23.35L260.48-23.35Q260.48-12 245.13-12ZM245.88-29.05L245.88-29.05 242.88-29.05 242.88-17.45 246.23-17.45Q249.63-17.45 251.31-18.8 252.98-20.15 252.98-23.48 252.98-26.8 251.16-27.93 249.33-29.05 245.88-29.05Z" fill="#ee3e38" data-fill-palette-color="primary"></path></g></svg></g></svg></g><g transform="matrix(1,0,0,1,163.310208,67.2560994429306)"><svg viewBox="0 0 232.209792 33.05353646988312" height="33.05353646988312" width="232.209792"><g transform="matrix(1,0,0,1,0,0)"><svg width="232.209792" viewBox="2.75 -35.95000076293945 333.6700134277344 47.5" height="33.05353646988312" data-palette-color="#ee3e38"><path d="M16.55 0.6L16.55 0.6Q13.5 0.6 10.95-0.6 8.4-1.8 6.58-4.03 4.75-6.25 3.75-9.43 2.75-12.6 2.75-16.55L2.75-16.55Q2.75-20.45 3.78-23.6 4.8-26.75 6.65-28.98 8.5-31.2 11.08-32.38 13.65-33.55 16.8-33.55L16.8-33.55Q19.7-33.55 21.9-32.35 24.1-31.15 25.4-29.6L25.4-29.6 24.05-28.05Q22.7-29.6 20.9-30.53 19.1-31.45 16.85-31.45L16.85-31.45Q14.15-31.45 11.98-30.4 9.8-29.35 8.28-27.43 6.75-25.5 5.95-22.75 5.15-20 5.15-16.55L5.15-16.55Q5.15-13.1 5.95-10.33 6.75-7.55 8.25-5.6 9.75-3.65 11.88-2.58 14-1.5 16.65-1.5L16.65-1.5Q19.2-1.5 21.2-2.53 23.2-3.55 25-5.55L25-5.55 26.35-4.1Q24.45-1.9 22.1-0.65 19.75 0.6 16.55 0.6ZM35 0L32.8 0 32.8-24 34.7-24 34.9-19.55 35.05-19.55Q36.25-21.8 37.97-23.2 39.7-24.6 41.85-24.6L41.85-24.6Q42.55-24.6 43.1-24.5 43.65-24.4 44.25-24.1L44.25-24.1 43.75-22.1Q43.15-22.35 42.7-22.43 42.25-22.5 41.55-22.5L41.55-22.5Q39.95-22.5 38.17-21.13 36.4-19.75 35-16.35L35-16.35 35 0ZM49.49 10.95L49.49 10.95Q48.14 10.95 47.05 10.45L47.05 10.45 47.55 8.5Q47.95 8.65 48.45 8.78 48.95 8.9 49.49 8.9L49.49 8.9Q51.74 8.9 53.24 7.1 54.74 5.3 55.64 2.55L55.64 2.55 56.3 0.45 46.45-24 48.84-24 54.64-8.9Q55.2-7.4 55.87-5.6 56.55-3.8 57.24-2.2L57.24-2.2 57.45-2.2Q57.99-3.8 58.57-5.6 59.14-7.4 59.64-8.9L59.64-8.9 64.8-24 67.05-24 57.55 3Q57.05 4.5 56.32 5.95 55.59 7.4 54.62 8.5 53.64 9.6 52.37 10.28 51.09 10.95 49.49 10.95ZM74.44 10.85L72.24 10.85 72.24-24 74.14-24 74.34-21 74.49-21Q76.24-22.4 78.32-23.5 80.39-24.6 82.64-24.6L82.64-24.6Q87.44-24.6 89.84-21.28 92.24-17.95 92.24-12.35L92.24-12.35Q92.24-9.3 91.39-6.9 90.54-4.5 89.07-2.83 87.59-1.15 85.67-0.28 83.74 0.6 81.64 0.6L81.64 0.6Q79.94 0.6 78.14-0.18 76.34-0.95 74.44-2.35L74.44-2.35 74.44 10.85ZM81.54-1.35L81.54-1.35Q83.34-1.35 84.89-2.15 86.44-2.95 87.54-4.4 88.64-5.85 89.27-7.88 89.89-9.9 89.89-12.35L89.89-12.35Q89.89-14.55 89.47-16.45 89.04-18.35 88.14-19.73 87.24-21.1 85.79-21.88 84.34-22.65 82.29-22.65L82.29-22.65Q80.49-22.65 78.57-21.63 76.64-20.6 74.44-18.7L74.44-18.7 74.44-4.45Q76.54-2.75 78.34-2.05 80.14-1.35 81.54-1.35ZM105.39 0.6L105.39 0.6Q103.64 0.6 102.49 0.08 101.34-0.45 100.64-1.4 99.94-2.35 99.67-3.7 99.39-5.05 99.39-6.65L99.39-6.65 99.39-22.1 95.64-22.1 95.64-23.8 99.44-24 99.74-30.95 101.64-30.95 101.64-24 108.59-24 108.59-22.1 101.64-22.1 101.64-6.45Q101.64-5.3 101.82-4.38 101.99-3.45 102.44-2.78 102.89-2.1 103.67-1.73 104.44-1.35 105.69-1.35L105.69-1.35Q106.39-1.35 107.22-1.58 108.04-1.8 108.69-2.1L108.69-2.1 109.29-0.3Q108.24 0.1 107.19 0.35 106.14 0.6 105.39 0.6ZM122.64 0.6L122.64 0.6Q120.49 0.6 118.54-0.25 116.59-1.1 115.11-2.7 113.64-4.3 112.76-6.63 111.89-8.95 111.89-11.95L111.89-11.95Q111.89-14.95 112.76-17.32 113.64-19.7 115.11-21.3 116.59-22.9 118.54-23.75 120.49-24.6 122.64-24.6L122.64-24.6Q124.79-24.6 126.76-23.75 128.74-22.9 130.21-21.3 131.69-19.7 132.56-17.32 133.44-14.95 133.44-11.95L133.44-11.95Q133.44-8.95 132.56-6.63 131.69-4.3 130.21-2.7 128.74-1.1 126.76-0.25 124.79 0.6 122.64 0.6ZM122.64-1.35L122.64-1.35Q124.44-1.35 126.01-2.13 127.59-2.9 128.71-4.3 129.84-5.7 130.49-7.65 131.14-9.6 131.14-11.95L131.14-11.95Q131.14-14.35 130.49-16.3 129.84-18.25 128.71-19.68 127.59-21.1 126.01-21.88 124.44-22.65 122.64-22.65L122.64-22.65Q120.84-22.65 119.29-21.88 117.74-21.1 116.61-19.68 115.49-18.25 114.84-16.3 114.19-14.35 114.19-11.95L114.19-11.95Q114.19-9.6 114.84-7.65 115.49-5.7 116.61-4.3 117.74-2.9 119.29-2.13 120.84-1.35 122.64-1.35ZM169.43 0L150.88 0 150.88-32.95 168.93-32.95 168.93-30.95 153.18-30.95 153.18-18.5 166.38-18.5 166.38-16.5 153.18-16.5 153.18-2 169.43-2 169.43 0ZM173.68 0L171.33 0 179.48-12.55 171.98-24 174.43-24 178.33-17.9Q178.93-16.9 179.56-15.93 180.18-14.95 180.88-13.95L180.88-13.95 181.08-13.95Q181.73-14.95 182.31-15.93 182.88-16.9 183.53-17.9L183.53-17.9 187.28-24 189.58-24 182.13-12.35 190.28 0 187.83 0 183.58-6.55Q182.88-7.7 182.18-8.8 181.48-9.9 180.73-10.95L180.73-10.95 180.53-10.95Q179.83-9.9 179.16-8.8 178.48-7.7 177.78-6.55L177.78-6.55 173.68 0ZM203.88 0.6L203.88 0.6Q201.53 0.6 199.55-0.25 197.58-1.1 196.1-2.7 194.63-4.3 193.8-6.63 192.98-8.95 192.98-11.95L192.98-11.95Q192.98-14.95 193.88-17.32 194.78-19.7 196.28-21.3 197.78-22.9 199.75-23.75 201.73-24.6 203.93-24.6L203.93-24.6Q206.43-24.6 208.08-23.7 209.73-22.8 210.98-21.65L210.98-21.65 209.68-20.1Q208.53-21.2 207.13-21.93 205.73-22.65 203.98-22.65L203.98-22.65Q202.13-22.65 200.55-21.88 198.98-21.1 197.8-19.68 196.63-18.25 195.95-16.3 195.28-14.35 195.28-11.95L195.28-11.95Q195.28-9.6 195.9-7.65 196.53-5.7 197.65-4.3 198.78-2.9 200.4-2.13 202.03-1.35 203.98-1.35L203.98-1.35Q205.88-1.35 207.5-2.15 209.13-2.95 210.38-4.1L210.38-4.1 211.53-2.55Q209.98-1.2 208.08-0.3 206.18 0.6 203.88 0.6ZM219.63 0L217.43 0 217.43-35.95 219.63-35.95 219.63-20.25Q221.53-22.15 223.48-23.38 225.43-24.6 227.93-24.6L227.93-24.6Q231.68-24.6 233.43-22.35 235.18-20.1 235.18-15.4L235.18-15.4 235.18 0 232.98 0 232.98-15.1Q232.98-18.95 231.7-20.78 230.43-22.6 227.48-22.6L227.48-22.6Q225.33-22.6 223.58-21.48 221.83-20.35 219.63-18.1L219.63-18.1 219.63 0ZM249.07 0.6L249.07 0.6Q247.62 0.6 246.37 0.2 245.12-0.2 244.17-1 243.22-1.8 242.67-3.05 242.12-4.3 242.12-6L242.12-6Q242.12-10 245.85-12.08 249.57-14.15 257.62-15.05L257.62-15.05Q257.62-16.4 257.42-17.78 257.22-19.15 256.57-20.23 255.92-21.3 254.82-21.98 253.72-22.65 251.92-22.65L251.92-22.65Q249.52-22.65 247.52-21.7 245.52-20.75 244.27-19.85L244.27-19.85 243.27-21.5Q243.92-21.95 244.85-22.5 245.77-23.05 246.92-23.5 248.07-23.95 249.42-24.28 250.77-24.6 252.22-24.6L252.22-24.6Q254.32-24.6 255.77-23.88 257.22-23.15 258.12-21.9 259.02-20.65 259.42-18.98 259.82-17.3 259.82-15.35L259.82-15.35 259.82 0 257.92 0 257.72-3.1 257.57-3.1Q255.72-1.65 253.6-0.53 251.47 0.6 249.07 0.6ZM249.47-1.3L249.47-1.3Q251.57-1.3 253.47-2.3 255.37-3.3 257.62-5.2L257.62-5.2 257.62-13.35Q253.92-12.9 251.37-12.25 248.82-11.6 247.27-10.7 245.72-9.8 245.05-8.65 244.37-7.5 244.37-6.1L244.37-6.1Q244.37-4.8 244.77-3.9 245.17-3 245.87-2.43 246.57-1.85 247.5-1.58 248.42-1.3 249.47-1.3ZM270.57 0L268.37 0 268.37-24 270.27-24 270.47-20.3 270.62-20.3Q272.47-22.15 274.42-23.38 276.37-24.6 278.87-24.6L278.87-24.6Q282.62-24.6 284.37-22.35 286.12-20.1 286.12-15.4L286.12-15.4 286.12 0 283.92 0 283.92-15.1Q283.92-18.95 282.65-20.78 281.37-22.6 278.42-22.6L278.42-22.6Q276.27-22.6 274.52-21.48 272.77-20.35 270.57-18.1L270.57-18.1 270.57 0ZM302.82 11.55L302.82 11.55Q298.27 11.55 295.62 9.75 292.97 7.95 292.97 4.9L292.97 4.9Q292.97 3.3 293.92 1.8 294.87 0.3 296.52-0.9L296.52-0.9 296.52-1.1Q295.62-1.65 295.02-2.6 294.42-3.55 294.42-4.95L294.42-4.95Q294.42-6.55 295.32-7.68 296.22-8.8 297.02-9.35L297.02-9.35 297.02-9.55Q295.87-10.55 294.94-12.25 294.02-13.95 294.02-16.15L294.02-16.15Q294.02-18 294.67-19.55 295.32-21.1 296.47-22.23 297.62-23.35 299.17-23.98 300.72-24.6 302.47-24.6L302.47-24.6Q303.47-24.6 304.27-24.43 305.07-24.25 305.62-24L305.62-24 313.77-24 313.77-22.15 308.17-22.15Q309.32-21.15 310.07-19.58 310.82-18 310.82-16.1L310.82-16.1Q310.82-14.25 310.17-12.7 309.52-11.15 308.39-10.03 307.27-8.9 305.74-8.28 304.22-7.65 302.47-7.65L302.47-7.65Q301.47-7.65 300.39-7.9 299.32-8.15 298.47-8.65L298.47-8.65Q297.67-8 297.09-7.2 296.52-6.4 296.52-5.2L296.52-5.2Q296.52-3.9 297.47-2.98 298.42-2.05 301.12-2.05L301.12-2.05 306.27-2.05Q310.32-2.05 312.24-0.73 314.17 0.6 314.17 3.45L314.17 3.45Q314.17 5 313.37 6.48 312.57 7.95 311.09 9.08 309.62 10.2 307.52 10.88 305.42 11.55 302.82 11.55ZM302.47-9.4L302.47-9.4Q303.72-9.4 304.84-9.88 305.97-10.35 306.82-11.25 307.67-12.15 308.17-13.4 308.67-14.65 308.67-16.15L308.67-16.15Q308.67-17.65 308.17-18.9 307.67-20.15 306.84-21 306.02-21.85 304.87-22.33 303.72-22.8 302.47-22.8L302.47-22.8Q301.17-22.8 300.04-22.33 298.92-21.85 298.07-21 297.22-20.15 296.72-18.93 296.22-17.7 296.22-16.15L296.22-16.15Q296.22-14.65 296.72-13.4 297.22-12.15 298.09-11.25 298.97-10.35 300.09-9.88 301.22-9.4 302.47-9.4ZM303.07 9.75L303.07 9.75Q305.07 9.75 306.72 9.22 308.37 8.7 309.52 7.85 310.67 7 311.29 5.93 311.92 4.85 311.92 3.7L311.92 3.7Q311.92 1.7 310.49 0.88 309.07 0.05 306.37 0.05L306.37 0.05 301.22 0.05Q300.82 0.05 299.99-0.03 299.17-0.1 298.22-0.35L298.22-0.35Q296.57 0.8 295.82 2.1 295.07 3.4 295.07 4.7L295.07 4.7Q295.07 6.95 297.14 8.35 299.22 9.75 303.07 9.75ZM327.87 0.6L327.87 0.6Q325.57 0.6 323.54-0.25 321.52-1.1 320.02-2.73 318.52-4.35 317.64-6.68 316.77-9 316.77-11.95L316.77-11.95Q316.77-14.9 317.64-17.25 318.52-19.6 319.99-21.23 321.47-22.85 323.34-23.73 325.22-24.6 327.22-24.6L327.22-24.6Q331.52-24.6 333.97-21.7 336.42-18.8 336.42-13.5L336.42-13.5Q336.42-13.05 336.42-12.6 336.42-12.15 336.32-11.7L336.32-11.7 319.02-11.7Q319.07-9.45 319.72-7.53 320.37-5.6 321.54-4.23 322.72-2.85 324.37-2.08 326.02-1.3 328.07-1.3L328.07-1.3Q330.02-1.3 331.59-1.88 333.17-2.45 334.52-3.45L334.52-3.45 335.42-1.75Q333.97-0.9 332.24-0.15 330.52 0.6 327.87 0.6ZM319.02-13.5L319.02-13.5 334.32-13.5Q334.32-18.15 332.42-20.43 330.52-22.7 327.27-22.7L327.27-22.7Q325.72-22.7 324.32-22.08 322.92-21.45 321.79-20.25 320.67-19.05 319.94-17.35 319.22-15.65 319.02-13.5Z" opacity="1" transform="matrix(1,0,0,1,0,0)" fill="#ee3e38" class="undefined-text-1" data-fill-palette-color="secondary" id="text-1"></path></svg></g></svg></g></svg></g></svg></g><g transform="matrix(1,0,0,1,426.1170881404029,0)"><svg viewBox="0 0 110.80607856405882 138.6279168315086" height="138.6279168315086" width="110.80607856405882"><g><svg xmlns="http://www.w3.org/2000/svg" xmlns:xlink="http://www.w3.org/1999/xlink" version="1.1" x="0" y="0" viewBox="13.971000671386719 4.923999786376953 72.05899810791016 90.15199279785156" enable-background="new 0 0 100 100" xml:space="preserve" height="138.6279168315086" width="110.80607856405882" class="icon-icon-0" data-fill-palette-color="accent" id="icon-0"><g fill="#ee3e38" data-fill-palette-color="accent"><path d="M50 4.924c-19.899 0-36.029 16.131-36.029 36.029 0 9.949 4.425 18.587 10.553 25.477L50 95.076l25.477-28.645c6.127-6.893 10.553-15.529 10.553-25.479C86.029 21.055 69.896 4.924 50 4.924zM71.798 62.752C65.977 68.573 58.234 71.781 50 71.781s-15.978-3.208-21.797-9.029c-5.823-5.826-9.03-13.565-9.03-21.799 0-16.998 13.83-30.826 30.827-30.826 16.998 0 30.827 13.828 30.827 30.826C80.827 49.187 77.62 56.93 71.798 62.752z" fill="#ee3e38" data-fill-palette-color="accent"></path><polygon points="53.374,39.668 51.064,40.313 53.374,40.959 52.193,43.061 54.279,41.871 54.921,44.198 55.563,41.871    57.646,43.061 56.468,40.959 58.777,40.313 56.468,39.668 57.646,37.566 55.563,38.755 54.921,36.429 54.279,38.755 52.193,37.566     " fill="#ee3e38" data-fill-palette-color="accent"></polygon><path d="M46.593 49.284c2.579 0 4.896-1.111 6.503-2.881-1.176 0.828-2.609 1.316-4.156 1.316-3.981 0-7.21-3.228-7.21-7.209 0-3.984 3.229-7.212 7.21-7.212 1.547 0 2.98 0.488 4.156 1.317-1.607-1.771-3.925-2.881-6.503-2.881-4.845 0-8.774 3.929-8.774 8.775C37.818 45.355 41.748 49.284 46.593 49.284z" fill="#ee3e38" data-fill-palette-color="accent"></path><path d="M50 11.598c-16.037 0-29.085 13.047-29.085 29.084 0 7.768 3.025 15.07 8.518 20.564 5.152 5.154 11.9 8.135 19.129 8.484 0.478 0.023 0.957 0.035 1.438 0.035s0.961-0.012 1.438-0.035c7.23-0.35 13.976-3.33 19.126-8.484 5.494-5.494 8.52-12.797 8.52-20.564C79.082 24.645 66.035 11.598 50 11.598zM25.015 30.231h49.969c1.351 3.217 2.101 6.748 2.101 10.451 0 3.73-0.755 7.343-2.184 10.672H25.097c-1.427-3.329-2.182-6.941-2.182-10.672C22.915 36.979 23.664 33.448 25.015 30.231z" fill="#ee3e38" data-fill-palette-color="accent"></path></g></svg></g></svg></g></svg></g><defs></defs></svg><rect width="395.52" height="102.11910579633897" fill="none" stroke="none" visibility="hidden"></rect></g></svg></g></svg>