<svg version="1.2" xmlns="http://www.w3.org/2000/svg" viewBox="0 0 745 202" width="745" height="202">
	<title>logo-white-svg</title>
	<style>
		.s0 { fill: #ffffff;stroke: #000000;stroke-width: .4 } 
		.s1 { fill: #ffffff } 
	</style>
	<g id="Layer">
		<g id="Layer">
			<g id="tight-bounds">
				<g id="Layer">
					<g id="Layer">
						<g id="Layer">
							<g id="Layer">
								<path id="o-0" class="s0" d="m223.9 27.1c0-0.6 0.5-1.2 1.1-1.2h4.5c0.7 0 1.2 0.6 1.2 1.2v140.6c0 0.7-0.5 1.2-1.2 1.2h-4.5c-0.6 0-1.1-0.5-1.1-1.2z"/>
							</g>
							<g id="Layer">
								<g id="Layer">
									<g id="Layer">
										<g id="Layer">
											<g id="Layer">
												<g id="Layer">
													<g id="Layer">
														<g id="Layer">
															<path id="text-0" fill-rule="evenodd" class="s1" d="m305.3 113.9q-4.1 0-7-1.3-2.8-1.3-4.9-4.3-2.1-3-4.1-7.9l-4.7-12.1q-1.2-3.1-2.4-5.1-1.1-2.1-2.8-3.1-1.8-1-4.9-1-1.3 0-2.3 0.1-1.1 0.1-2 0.3v21.1q0 2.6 0.7 3.8 0.8 1.2 3.2 1.5l6.5 0.8v5.7h-31.9v-5.7l5.6-0.9q2-0.3 2.6-1.3 0.6-1.1 0.6-4v-49.7q0-2.6-0.6-3.6-0.7-1-2.8-1.3l-5.4-0.8v-5.8h28.1q6.7 0 12 1.2 5.4 1.1 9 3.4 3.6 2.3 5.5 5.8 2 3.5 2 8.2 0 3.1-1.1 5.8-1 2.6-2.9 4.8-1.9 2.2-4.4 3.9-2.4 1.7-5.2 2.9-2.8 1.1-5.6 1.7v0.3q4.7 1 7.4 3.1 2.8 2.2 4.4 6.7l3.5 8q1.4 3.4 2.6 5.9 1.1 2.4 2.8 3.7 1.6 1.2 4.2 1.2 1.1 0 2.1-0.2 1-0.2 2.6-0.6l1.2 4.5q-2.2 2-5.2 3.1-2.9 1.2-6.4 1.2zm-29.8-40.5q5.3 0 8.8-1.7 3.6-1.6 5.5-5 2-3.3 2-7.8 0-4.7-1.9-7.5-1.8-2.8-5.3-4.2-3.5-1.4-9-1.4h-5.4v27.4q1.8 0.1 3.1 0.1 1.3 0.1 2.2 0.1zm85.5 40.5q-7.4 0-12.8-1.9-5.5-1.9-8.9-5.5-3.4-3.7-5.1-9.1-1.6-5.3-1.6-12.3v-34.2q0-2.7-0.7-3.7-0.6-1-2.8-1.3l-5.3-0.8v-5.8h30.2v5.8l-5.6 0.8q-1.9 0.3-2.5 1.4-0.7 1.1-0.7 3.9v33.4q0 7.2 1.8 11.8 1.9 4.6 5.8 6.8 3.8 2.2 10.2 2.2 6.5 0 10.6-2.3 4.1-2.4 6-7.2 1.9-4.8 1.9-12v-33q0-2.7-0.7-3.7-0.6-1-2.7-1.3l-5.2-0.8v-5.8h25.6v5.8l-5.5 0.8q-1.9 0.3-2.6 1.4-0.6 1.1-0.6 4v31.5q0 10.3-3.2 17.2-3.3 7-9.7 10.4-6.4 3.5-15.9 3.5zm75.3 0q-5.6 0-10.7-1.9-5-1.9-8.4-4.9l-1.5 5.9h-5.4l-2-22.6 6.5-0.7q1.5 4 3.5 7.2 2.1 3.1 4.7 5.2 2.6 2.1 5.7 3.2 3.1 1.1 6.6 1.1 4.2 0 7.1-1.4 2.9-1.2 4.3-3.7 1.5-2.6 1.5-6 0-3.6-1.6-6.2-1.5-2.6-5.1-4.5-3.6-2-9.4-3.9-5.6-1.7-9.6-3.7-4-2-6.7-4.6-2.7-2.5-3.9-5.9-1.3-3.4-1.3-7.8 0-3.4 1-6.5 1-3.1 2.9-5.7 1.9-2.6 4.7-4.5 2.8-2 6.5-3.1 3.8-1 8.2-1 4.6 0 8.6 1.4 4.1 1.5 7.2 4l1.3-5.4h5.4l2.3 21.5-6.5 1.1q-1.7-5.6-4.3-9.1-2.6-3.4-6-5.1-3.3-1.7-7.5-1.7-5.2 0-8.6 2.9-3.2 2.9-3.2 7.8 0 3.3 1.5 5.6 1.6 2.4 5.1 4.3 3.5 1.9 9.2 3.7 5.6 1.9 9.8 4 4.3 2.1 6.9 4.7 2.7 2.6 4 5.9 1.3 3.3 1.3 7.7 0 5.2-1.8 9.3-1.9 4.2-5.2 7.2-3.3 3-7.7 4.6-4.4 1.6-9.4 1.6zm70.6-1.5h-14.7l-15.5-61.1q-0.6-2.5-1.4-3.6-0.8-1.2-3.3-1.6l-4.2-0.8v-6h29.9v5.8l-5.3 0.7q-2.1 0.3-2.5 1.4-0.5 1.1 0.1 3.9l11.4 50h0.5l16.1-61.8h13.1l17.7 61.6h0.6l11.4-49.4q0.5-2.7 0-3.9-0.4-1.2-2.5-1.6l-5.2-1.1v-5.6h25.7v5.8l-5 0.8q-1.4 0.2-2.4 0.7-0.9 0.5-1.5 1.6-0.5 1.1-1.1 3.2l-15.1 61h-14.2l-16.9-59.5h-0.3zm100.7 0h-25.8v-5.8l4.8-0.8q1.9-0.4 2.8-1.5 1-1 2-4.1l21.9-60.9h12.9l21.7 61.1q1.1 2.7 1.8 3.7 0.7 1.1 2.9 1.5l4.1 0.9v5.9h-29.8v-5.8l5.6-0.7q2.1-0.3 2.6-1.5 0.4-1.2-0.5-3.7l-4-11.8h-27l-3.9 11.4q-0.7 2.1-0.5 3.6 0.2 1.5 2.9 2l5.5 0.8zm9.6-62.8l-11.3 32.7h22.6l-10.9-32.7zm79.5 62.8h-32.6v-5.7l5.5-0.8q2-0.3 2.6-1.4 0.7-1 0.7-3.9v-49.8q0-2.6-0.7-3.6-0.7-1-2.8-1.3l-5.3-0.8v-5.7h27.6q5.4 0 9.9 0.7 4.5 0.8 8 2.4 3.5 1.6 5.8 4.1 2.3 2.4 3.5 5.8 1.3 3.4 1.3 7.9 0 4.6-1.4 8.3-1.4 3.7-3.8 6.6-2.4 2.9-5.7 4.9-3.4 1.9-7.3 2.9-3.9 1-8.1 1-2.8 0-5.2-0.2-2.3-0.1-3.2-0.3v17.2q0 2.7 0.7 3.8 0.8 1.2 3.2 1.4l7.3 0.8zm-5.5-35.1q7.7 0 11.7-4.3 4-4.2 4-12.4 0-5.1-1.8-8.4-1.8-3.3-5.4-4.9-3.5-1.5-9.2-1.5h-5v30.9q0.9 0.3 2.4 0.4 1.5 0.2 3.3 0.2z"/>
														</g>
													</g>
												</g>
											</g>
											<g id="Layer">
												<g id="Layer">
													<g id="Layer">
														<g id="Layer">
															<path id="text-1" fill-rule="evenodd" class="s1" d="m262.6 152l-4.3 0.3-1.1-2.4-1.7 2.4-4.1-0.3-2.7-5.3 1.6-6.2 3.9-1.5 3.5 1.4 0.2-6.6 1.7-2 1.4 1.2-1.1 1-0.4 16.8 2.5-0.5zm-5.2-4.3l0.1-5.7-3.1-1.2-2.8 0.9-0.7 5.2 2.3 3.9 1.6-0.3zm10.5-8.8l3.7 0.3 2.1 1.8 0.8 4.6-8.3 1.3 1.4 4.2 3.2-0.1 3.7-1.1 0.2 2.1-7.5 1.1-3.3-4.9 0.4-6.8zm-1.7 6.6v-0.1l6.3-0.9-0.8-3.5-1.8-0.7-3.4 1.2zm20.1 4.8l0.6 2.1-4.1 0.2-5.2-1.7-0.2-6.5 2.2-4.6 3.8-1.2 2.9 1.6-1.5 3.7-0.8-0.4 0.8-2.4-1-0.9-3.1 1.5-1.5 3.2 0.4 4.8 3.2 1.2zm6.4-11.4l3.7 0.3 2.2 1.8 0.7 4.6-8.3 1.3 1.5 4.2 3.1-0.1 3.7-1.1 0.2 2.1-7.5 1.1-3.2-4.9 0.3-6.8zm-1.6 6.6v-0.1l6.2-0.9-0.7-3.5-1.8-0.7-3.5 1.2zm25.7 3.5l1.4 1.6-4.4 2.2-1.6-0.8v-8l-0.8-2.4-2-0.3-3.1 4.5v5.4l1.4 0.4-0.2 1-4.8-0.2-0.2-0.6 1.4-0.6v-9.6l-1.8-1.1 1.4-1.8 2.4 2.6 0.4 2.5 2.7-4.3 3.4 0.2 2 3.7-0.4 7 0.4 0.4zm10.5 1.2v1.5l-4.4 0.8-2.1-2.1v-9.5l-1.2 0.2-1.1 0.2-0.2-1.2 1.9-0.6h0.4v-2.5l-0.4-0.9h2.3l0.2 2.3v0.9l3.7-0.5v2.1l-3.7-0.2v8.7l1.2 1.4zm9.2-10.8l1.9 2.2-1.6 1.4-1.4-2.1-2.2 0.7-0.6 1.4 0.1 8 1.6 0.5-0.2 0.9h-4.7l-0.1-0.7 1.3-0.5-0.1-10.6-1.3-0.7 1.2-1.5 1.9 1.3 0.2 0.9 1.3-0.6zm3.7 1.1l2.8-1.9 6 1.4 0.1 10.8 2.3 0.2v1.2l-3.3 0.3-1.1-2.3-1.4 2.2-4.5 0.8-1.6-2 0.1-4 4.5-2.9 2.8-0.4 0.3-2.9-4.5-0.6-1.3 2.3-1.4-1.6zm6.7 5.2l-2.3 0.1-2.9 1.9-0.1 3 1.1 0.6q0.5-0.1 0.9-0.1 0.4 0 0.7-0.1 0.3 0 0.3 0 0 0 0.1-0.2 0.1-0.2 0.3-0.4 0.2-0.3 0.4-0.6 0.2-0.3 0.4-0.6 0.6-0.7 1.3-1.7zm11.8 5.9l0.2 1-5.6-0.1-0.1-0.7 1.9-0.5v-15.9l-1.4 0.3 0.1-1.8h3.4l-0.3 17.3zm7.7 0.7l0.1 0.7-5.3 0.1-0.1-0.8 1.4-0.5 0.1-11.2-2-0.7-0.1-0.7 5.5-0.3 0.3 0.5-1.7 0.9-0.1 11.4zm-1.5-15.9l-2 0.9-0.9-1.8 1.1-1.1 1.7 0.2zm4.1 2.7l1.3 0.3 8-0.3 0.1 2.1-7.8 9.9 5.7-0.5 0.3-1.6 2.1-0.2 0.1 3.9-10.7-0.2 0.2-1.7 7.5-9.7-5.3-0.3-0.5 1.1-1-0.2zm16 0l3.8 0.3 2.1 1.9 0.8 4.5-8.3 1.3 1.4 4.2h3.1l3.8-1.1 0.2 2-7.5 1.1-3.3-4.8 0.4-6.8zm-1.7 6.6v-0.1l6.3-1-0.8-3.5-1.8-0.6-3.5 1.1zm24.5 6.6l-4.3 0.3-1-2.4-1.8 2.4-4-0.3-2.7-5.3 1.6-6.2 3.8-1.6 3.6 1.5 0.1-6.6 1.7-2 1.5 1.2-1.1 0.9-0.5 16.9 2.6-0.5zm-5.3-4.3l0.2-5.8-3.2-1.1-2.8 0.9-0.7 5.2 2.4 3.9 1.5-0.4zm19-8.8l3.7 0.3 2.2 1.9 0.7 4.5-8.3 1.4 1.5 4.2 3.1-0.1 3.7-1.1 0.2 2.1-7.5 1-3.2-4.8 0.3-6.8zm-1.6 6.6v-0.1l6.2-1-0.7-3.4-1.8-0.7-3.5 1.2zm22.2 6.3l0.1 0.9h-4.5l-0.1-0.7 0.8-0.3-2.1-3.9-0.7-1.5-2.6 5.2 1.5 0.5-0.2 0.7h-4.5l-0.1-0.8 0.9-0.2 4.1-6.7-3.5-4.8-1.3-0.4v-0.7h4.6l0.1 0.6-1.2 0.5 2.5 4 2.4-4.1-0.9-0.5 0.2-0.6 4.5 0.4-0.3 0.9-1.6 0.4-3.2 5.1 3.8 5.6zm10.3-1.6l0.7 2.1-4.1 0.2-5.2-1.7-0.2-6.5 2.2-4.5 3.8-1.3 2.8 1.6-1.4 3.8-0.8-0.5 0.8-2.4-1-0.9-3.1 1.5-1.5 3.3 0.4 4.7 3.2 1.2zm15.8-1.5l1.5 1.2-3.2 3.2-2.2-1-0.3-9.2-1.8-2-3.8 3.4v6.9l2 0.6 0.1 0.7-5.2 0.1-0.1-0.8 1-0.4 0.4-15.7-1.7-1.5 1.9-1.4 1.8 2.8-0.3 7 2.8-3.8 3.5 1 1.6 3-0.4 8.4 0.6 0.4zm3-8.4l2.8-1.9 6 1.4 0.1 10.9 2.2 0.2 0.1 1.2-3.3 0.3-1.2-2.3-1.3 2.1-4.5 0.9-1.7-2 0.1-4 4.6-3 2.8-0.3 0.2-2.9-4.4-0.6-1.3 2.2-1.5-1.5zm6.7 5.1l-2.2 0.1-3 2-0.1 3 1.1 0.5q0.5 0 1 0 0.4-0.1 0.7-0.1 0.3 0 0.3-0.1 0 0 0.1-0.1 0.1-0.2 0.2-0.5 0.2-0.2 0.4-0.5 0.2-0.3 0.5-0.6 0.5-0.8 1.2-1.7zm20.9 3.4l1.4 1.6-4.4 2.3-1.6-0.9v-8l-0.9-2.4-2-0.2-3 4.4v5.4l1.4 0.4-0.2 1-4.8-0.2-0.3-0.6 1.4-0.6v-9.6l-1.7-1 1.3-1.9 2.5 2.7 0.4 2.4 2.6-4.2 3.4 0.1 2.1 3.7-0.5 7 0.5 0.4zm5.8-0.7l-0.9-0.7-0.6 2.9 5.6 0.3 1.8 0.2 1.2 3.7-9.4 2.4-1.4-3.3 1.9 0.4 0.1 1.4 6.7-2.2-0.4-0.9-7.4-0.8-0.7-1.9 1.1-3.5-1-1.2 0.1-2.9 2.6-2.7 4.4-0.1 0.5 0.4 3.5-2.3 0.3 1.3-2.5 1.9 0.6 0.4 1.8 2.2-2 5.1zm-0.8-6.7l-0.9 1.9 2 2.8 3.8 0.6 1.7-3.1-1-2.5-3.8-0.5zm14.8-2.8l3.7 0.3 2.2 1.9 0.7 4.5-8.3 1.4 1.5 4.2 3.1-0.1 3.7-1.1 0.2 2.1-7.5 1-3.2-4.8 0.3-6.8zm-1.6 6.6v-0.1l6.2-1-0.7-3.4-1.8-0.7-3.5 1.2z"/>
														</g>
													</g>
												</g>
											</g>
										</g>
									</g>
								</g>
							</g>
							<g id="Layer">
								<g id="Layer">
									<g id="Layer">
										<g id="icon-0">
											<path id="Layer" class="s1" d="m61.2 73.2c-16 0-28.9-12.8-28.9-28.7 0-15.8 12.9-28.7 28.9-28.7 15.9 0 28.8 12.9 28.8 28.7 0 15.9-12.9 28.7-28.8 28.7z"/>
											<path id="Layer" class="s1" d="m162 73.2c-15.9 0-28.8-12.8-28.8-28.7 0-15.8 12.9-28.7 28.8-28.7 16 0 28.9 12.9 28.9 28.7 0 15.9-12.9 28.7-28.9 28.7z"/>
											<path id="Layer" class="s1" d="m205.8 110.6v69.2h-83.9v-38.2h9.9v10.7l37.9-21.8-37.9-21.9v10.8h-9.9v-8.8c0-16.3 18.8-29.5 42-29.5 23.2 0 41.9 13.2 41.9 29.5z"/>
											<path id="Layer" class="s1" d="m105 163.4v16.4h-84v-69.2c0-16.3 18.8-29.5 42-29.5 23.2 0 42 13.2 42 29.5v30.6h-10.4v-10.7l-38 21.8 38 21.8v-10.7z"/>
										</g>
									</g>
								</g>
							</g>
						</g>
					</g>
				</g>
			</g>
		</g>
	</g>
</svg>